<svg xmlns="http://www.w3.org/2000/svg" viewBox="0 0 1600 1000" font-family="Space Grotesk, Poppins, Helvetica, Arial, sans-serif">
  <defs>
    <pattern id="an-grid" width="80" height="80" patternUnits="userSpaceOnUse"><path d="M80 0H0V80" fill="none" stroke="#4ade80" stroke-opacity=".07"/></pattern>
    <clipPath id="an-lens"><rect x="120" y="150" width="180" height="110" rx="40"/><rect x="340" y="150" width="180" height="110" rx="40"/></clipPath>
  </defs>
  <rect width="1600" height="1000" fill="#0b120b"/><rect width="1600" height="1000" fill="url(#an-grid)"/>
  <g fill="none" stroke="#fff" stroke-width="6" stroke-linecap="round"><rect x="120" y="150" width="180" height="110" rx="40"/><rect x="340" y="150" width="180" height="110" rx="40"/><path d="M300 200h40"/><path d="M120 200h-40M520 200h40"/></g>
  <rect class="an-glint" x="40" y="130" width="50" height="150" fill="#fff" fill-opacity=".28" clip-path="url(#an-lens)"/>
  <text x="150" y="330" fill="#9ca3af" font-size="26" letter-spacing="6">AR GLASSES · VOICE · GESTURE</text>
  <g class="an-nc" style="--i:0">
    <rect x="140" y="440" width="420" height="300" rx="26" fill="#111811" stroke="#2a3a2a" stroke-width="3"/>
    <g fill="#2a3a2a"><rect class="an-nl" style="--i:0;--j:0" x="180" y="500" width="300" height="14" rx="7"/><rect class="an-nl" style="--i:0;--j:1" x="180" y="534" width="240" height="14" rx="7"/><rect class="an-nl" style="--i:0;--j:2" x="180" y="568" width="320" height="14" rx="7"/><rect class="an-nl" style="--i:0;--j:3" x="180" y="602" width="200" height="14" rx="7"/></g>
    <g class="an-tg" style="--i:0" font-size="20" font-weight="700"><rect x="180" y="670" width="120" height="40" rx="20" fill="#0f2a1a"/><text x="240" y="697" fill="#4ade80" text-anchor="middle">research</text></g>
  </g>
  <g class="an-nc" style="--i:1">
    <rect x="620" y="360" width="420" height="300" rx="26" fill="#111811" stroke="#4ade80" stroke-width="3"/>
    <g fill="#2a3a2a"><rect class="an-nl" style="--i:1;--j:0" x="660" y="420" width="320" height="14" rx="7"/><rect class="an-nl" style="--i:1;--j:1" x="660" y="454" width="280" height="14" rx="7"/><rect class="an-nl" style="--i:1;--j:2" x="660" y="488" width="340" height="14" rx="7"/><rect class="an-nl" style="--i:1;--j:3" x="660" y="522" width="220" height="14" rx="7"/></g>
    <g class="an-tg" style="--i:1" font-size="20" font-weight="700"><rect x="660" y="590" width="130" height="40" rx="20" fill="#0f2a1a"/><text x="725" y="617" fill="#4ade80" text-anchor="middle">summary</text><rect x="800" y="590" width="100" height="40" rx="20" fill="#0f2a1a"/><text x="850" y="617" fill="#4ade80" text-anchor="middle">idea</text></g>
  </g>
  <g class="an-nc" style="--i:2">
    <rect x="1100" y="500" width="380" height="300" rx="26" fill="#111811" stroke="#2a3a2a" stroke-width="3"/>
    <g fill="#2a3a2a"><rect class="an-nl" style="--i:2;--j:0" x="1140" y="560" width="280" height="14" rx="7"/><rect class="an-nl" style="--i:2;--j:1" x="1140" y="594" width="220" height="14" rx="7"/><rect class="an-nl" style="--i:2;--j:2" x="1140" y="628" width="300" height="14" rx="7"/></g>
    <g class="an-tg" style="--i:2" font-size="20" font-weight="700"><rect x="1140" y="730" width="120" height="40" rx="20" fill="#0f2a1a"/><text x="1200" y="757" fill="#4ade80" text-anchor="middle">todo</text></g>
  </g>
  <g fill="none" stroke="#4ade80" stroke-width="3" stroke-dasharray="10 10"><path class="an-lk" d="M560 590 C600 590 600 500 620 500"/><path class="an-lk" d="M1040 520 C1080 520 1080 640 1100 640"/></g>
  <g class="an-gc">
    <rect x="1100" y="150" width="380" height="96" rx="24" fill="#111811" stroke="#4ade80" stroke-width="3"/>
    <text x="1130" y="190" fill="#4ade80" font-size="26" font-weight="700">Gemini · auto-labeled</text>
    <text x="1130" y="226" fill="#9ca3af" font-size="22">3 related notes linked</text>
  </g>
</svg>
